<svg width="264" height="274" viewBox="0 0 264 274" fill="none" xmlns="http://www.w3.org/2000/svg">
<rect width="264" height="274" fill="#1E1E1E"/>
<path d="M251.397 29.202L82.8221 0.785767C73.1313 1.09013 53.145 3.18956 38.2294 10.9624C19.585 20.6785 5.64034 49.172 2.81457 59.6529C-0.011197 70.1338 11.5534 78.1374 19.0019 75.4466C26.4505 72.7557 38.491 60.8897 49.5179 54.8327C60.5449 48.7756 75.8567 52.445 77.1161 56.6553C78.3755 60.8655 70.359 95.3816 56.9979 131.958C46.309 161.219 18.1223 196.672 5.36507 210.741C0.00013639 222.441 -4.31011 246.763 21.3683 250.445C53.4664 255.048 73.3697 186.692 84.0279 165.606C92.5545 148.737 103.419 86.8507 107.786 58.0161L165.839 68.1455C163.187 70.0106 155.657 81.9319 146.749 114.696C135.615 155.652 129.825 194.547 131.454 213.786C133.082 233.025 144.631 263.972 171.216 271.603C192.483 277.708 212.871 265.237 220.407 258.238C228.506 248.013 243.275 224.318 237.561 211.35C231.848 198.381 223.908 201.984 220.652 205.407C217.606 209.531 210.605 218.419 206.968 220.976C202.423 224.174 197.416 224.298 188.877 221.81C180.338 219.323 165.333 196.752 176.728 142.873C185.844 99.7694 195.423 77.6306 199.073 71.9492L242.613 79.5462C253.45 81.437 257.398 74.8099 258.017 71.26C259.803 62.9255 263.192 45.0274 262.455 40.1101C261.718 35.1928 254.776 30.7892 251.397 29.202Z" stroke="black"/>
</svg>
